<svg width="19" height="24" viewBox="0 0 19 24" fill="none" xmlns="http://www.w3.org/2000/svg">
<path d="M13.7785 0.626629C13.7301 0.572551 11.9868 0.647976 10.4698 2.29452C8.95273 3.93965 9.18612 5.8267 9.22027 5.87509C9.25443 5.92347 11.3834 5.9989 12.7425 4.08481C14.1016 2.17071 13.8269 0.682131 13.7785 0.626629M18.4947 17.3241C18.4264 17.1875 15.186 15.5679 15.4877 12.4542C15.7894 9.33896 17.8714 8.48509 17.9041 8.39258C17.9369 8.30008 17.0545 7.26832 16.1195 6.74604C15.4331 6.37781 14.6733 6.16684 13.8952 6.1284C13.7415 6.12413 13.2078 5.99321 12.1106 6.29348C11.3877 6.4913 9.75821 7.1317 9.30993 7.15732C8.86022 7.18293 7.52249 6.41445 6.08372 6.21094C5.16296 6.03305 4.18671 6.39737 3.48796 6.67773C2.79063 6.95666 1.46428 7.75076 0.53641 9.86124C-0.391463 11.9703 0.0938201 15.3118 0.441061 16.3507C0.788301 17.3881 1.33051 19.0887 2.25269 20.3297C3.0724 21.73 4.15967 22.702 4.61364 23.0322C5.06762 23.3624 6.34842 23.5815 7.23645 23.1275C7.95085 22.6892 9.2402 22.4373 9.74967 22.4558C10.2577 22.4743 11.2596 22.675 12.2857 23.2229C13.0983 23.5032 13.8667 23.3866 14.6367 23.0735C15.4066 22.759 16.5209 21.5664 17.8216 19.1485C18.3154 18.0242 18.5403 17.4166 18.4947 17.3241" fill="white"/>
</svg>
