<svg width="46" height="46" viewBox="0 0 46 46" fill="none" xmlns="http://www.w3.org/2000/svg">
<path d="M34.5454 3.1331C32.7087 3.53426 30.9557 3.92421 29.1992 4.29948C27.3263 4.69978 25.4628 5.16651 23.5717 5.44948C22.3182 5.63755 21.025 5.57457 19.7482 5.58665C17.896 5.60477 16.0429 5.59959 14.1898 5.57802C13.824 5.57371 13.6152 5.69104 13.4401 6.00248C13.164 6.49595 12.8439 6.96526 12.4997 7.51394H24.6907V9.29199H9.21279V25.1555H6.55909V29.2025H3.14448C3.14448 29.6269 3.20228 30.0057 3.13499 30.362C2.81751 32.0443 3.58015 33.403 4.42647 34.723C7.30965 39.2186 11.4498 42.0362 16.4725 43.6408C18.0487 44.1446 19.6861 44.3189 21.3339 44.4216C25.16 44.6597 28.7998 43.9773 32.2722 42.3433C36.7902 40.2167 40.1323 36.9203 42.3098 32.4273C42.6282 31.7717 42.7627 31.1177 42.761 30.3844C42.7446 24.3377 42.761 18.2918 42.7688 12.2451C42.7688 12.1182 42.786 11.9923 42.874 11.8413C43.1708 12.5358 43.4909 13.2208 43.7592 13.9265C44.7677 16.5854 45.2965 19.3253 45.3578 22.1835C45.3914 23.7381 45.3509 25.2711 45.1507 26.8067C44.8453 29.1499 44.0723 31.3455 42.9603 33.4125C39.5733 39.7086 34.3306 43.6037 27.3478 44.9763C19.9285 46.4351 13.2356 44.7002 7.47011 39.7526C3.77684 36.5856 1.52603 32.5343 0.489054 27.7937C0.143969 26.2175 -0.0182203 24.6232 0.00162204 23.0134C0.0740898 17.0202 1.91598 11.6929 6.09064 7.30172C9.37325 3.84829 13.3616 1.56555 18.0116 0.489753C20.2339 -0.0244222 22.4908 -0.0735967 24.7683 0.0696133C28.2157 0.286154 31.3663 1.40854 34.3789 3.01232C34.4152 3.0313 34.4462 3.06063 34.5454 3.1331Z" fill="#2E3138"/>
<path d="M25.4707 9.23793V7.53925H34.2048C34.2928 8.02064 34.3773 8.47874 34.4653 8.95582C34.5594 8.96359 34.6594 8.96272 34.7543 8.98257C34.9346 9.02053 35.2504 9.04382 35.2668 9.12233C35.3211 9.39235 35.4022 9.68222 35.0632 9.91688C34.4748 10.3232 34.4688 11.0608 35.0408 11.4784C35.2901 11.6604 35.3565 11.8459 35.3367 12.1202C35.3211 12.3342 35.3065 12.5559 35.3453 12.7638C35.3634 12.8605 35.5127 13.0019 35.5981 12.9985C35.699 12.995 35.8388 12.8743 35.8802 12.7725C35.9302 12.6482 35.9 12.4895 35.894 12.3463C35.8767 11.9719 35.8897 11.6708 36.2943 11.4189C36.8197 11.091 36.7205 10.3595 36.1856 9.91516C36.07 9.81853 35.9492 9.66325 35.9328 9.52262C35.8767 9.04037 35.8931 9.03864 36.7274 8.93512C36.8119 8.48651 36.8999 8.02582 36.9957 7.51768C37.9886 7.51768 39.0187 7.50043 40.0488 7.52717C40.3861 7.5358 40.9046 8.33381 40.9046 8.75481C40.9072 10.8374 40.9089 12.92 40.9098 15.0026C40.9106 21.0493 40.9115 27.0952 40.9115 33.1419C40.9115 33.2705 40.9115 33.399 40.9115 33.5621C40.3654 33.5621 39.8392 33.5586 39.3138 33.5621C38.5054 33.5681 37.9222 33.9028 37.7117 34.6137C37.5461 35.1745 37.2674 35.6438 36.9603 36.1286C36.7196 36.5082 36.6506 36.9965 36.4892 37.4848H34.3023C36.1761 35.3703 36.824 32.9539 36.3296 30.2674C35.8336 27.5705 34.3402 25.5872 31.8047 24.4087C35.0054 22.138 35.9155 19.0133 34.9088 15.4529C33.5923 10.7968 29.9844 9.2664 25.4716 9.23879L25.4707 9.23793Z" fill="#2E3138"/>
<path d="M22.204 18.3544H18.3477V14.4005C18.5073 14.4005 18.6582 14.4005 18.8092 14.4005C21.148 14.4005 23.486 14.398 25.8248 14.4031C27.7728 14.4075 29.3464 15.9129 29.4542 17.8652C29.5284 19.1972 29.2851 20.4361 28.3456 21.4498C27.6727 22.1762 26.8264 22.5549 25.8334 22.5652C24.6454 22.5773 23.4566 22.5678 22.2031 22.5678V18.3544H22.204Z" fill="#2E3138"/>
<path d="M12.7886 24.4523C12.516 24.4523 12.3029 24.4298 12.0958 24.4583C11.8836 24.4876 11.6705 24.5463 11.473 24.6291C11.1814 24.7508 11.0071 24.6343 11.0062 24.2737C11.0002 22.6656 10.9976 21.0566 10.9967 19.4477C10.995 17.4367 10.9829 15.4266 11.0011 13.4156C11.008 12.6176 11.0847 11.8205 11.1313 10.9854H16.2412C16.2515 11.0639 16.2748 11.1588 16.2757 11.2537C16.2947 14.1774 16.3205 17.1011 16.3274 20.0248C16.3352 23.285 16.3292 26.5452 16.3205 29.8054C16.3171 31.0977 16.2981 32.3901 16.2748 33.6815C16.2558 34.7297 16.217 35.7779 16.1937 36.8253C16.1885 37.0461 16.1937 37.248 15.7995 37.0893V22.8045C15.5605 22.7941 15.3966 22.7864 15.1326 22.7752V37.1333H14.6132V17.2297H13.9274V37.122C13.7255 37.141 13.6056 37.1522 13.4167 37.1695V17.2366H12.7895V24.4523H12.7886ZM15.7451 17.2935C15.1749 17.2167 15.1697 17.2193 15.168 17.7361C15.1654 18.4952 15.1654 19.2553 15.1645 20.0145C15.1645 20.4105 15.1645 20.8065 15.1645 21.1998H15.7451V17.2926V17.2935ZM12.1554 23.4351V19.4813H11.6188V23.4351H12.1554ZM12.3995 12.477C12.3995 12.1617 12.4036 11.8384 12.3995 11.6772C12.3926 11.4029 12.3003 11.2985 12.0165 11.2985C11.4557 11.2985 11.4488 11.2925 11.4548 11.8714C11.4566 12.0681 11.4548 12.2656 11.4548 12.4839C11.9311 12.5201 11.9642 12.477 12.3995 12.477ZM13.8886 12.477H14.6788V11.4271H13.8886V12.477ZM15.1076 11.4107V12.4908H15.8297C15.8607 12.1276 15.89 11.7747 15.9211 11.4107H15.1076ZM13.4745 12.4882V11.4314H12.7722V12.4882H13.4745ZM12.2322 14.3456V13.6002H11.5963V14.3456H12.2322ZM15.8521 16.1539V15.4223H15.2206V16.1539H15.8521ZM14.6797 16.134C14.7349 15.7426 14.9868 15.2388 14.3708 15.2937C14.0438 15.2359 14.0516 15.5689 14.0533 15.8165C14.0559 16.197 14.2509 16.2746 14.6797 16.1331V16.134ZM13.471 14.3154V13.6408H12.8361V14.3154H13.471ZM15.2387 13.6149V14.3413C15.9038 14.4207 15.9711 14.3318 15.8046 13.6149H15.2387ZM13.9793 13.6016C13.9914 13.9359 13.9537 14.1054 14.0575 14.3413C14.0765 14.3844 14.5175 14.3896 14.5365 14.337C14.615 14.1187 14.6262 13.8763 14.6676 13.608C14.407 13.6218 14.2536 13.5869 13.9793 13.6016ZM12.8093 16.1953C13.0509 16.1651 13.3028 16.2582 13.4011 16.1539C13.4011 15.9408 13.4011 15.6753 13.4011 15.4907C13.2236 15.4145 13.0388 15.4714 12.8283 15.4145C12.8188 15.6017 12.8119 15.7001 12.8093 15.7984C12.8067 15.8968 12.8093 15.9951 12.8093 16.1961V16.1953ZM11.6084 16.1245C12.296 16.1858 12.3443 16.1254 12.202 15.424H11.6084V16.1245ZM11.6041 17.3185V17.8888H12.2304V17.3185H11.6041Z" fill="#2E3138"/>
<path d="M22.2339 27.7133C23.3709 27.7133 24.4735 27.7038 25.576 27.7168C26.2489 27.7245 26.9391 27.6771 27.5896 27.8091C29.3858 28.1731 30.6358 29.6587 30.8153 31.5187C31.0309 33.7557 29.7645 35.6572 27.6646 36.2283C27.3912 36.3025 27.1004 36.3525 26.8183 36.3542C25.369 36.3637 23.9196 36.3542 22.4711 36.3499C22.4021 36.3499 22.3322 36.3378 22.2339 36.3292V27.7133Z" fill="#2E3138"/>
<path d="M9.71159 37.1313C9.68398 36.8957 9.63222 36.6602 9.63308 36.4247C9.63653 34.2886 9.65034 32.1517 9.65897 30.0156C9.66155 29.4669 9.65724 29.4669 8.99727 29.536V37.2184C8.80057 37.2296 8.67116 37.2365 8.47705 37.2469V28.4395H11.2852V37.221H10.8616C10.8245 36.9855 10.7555 36.7508 10.7546 36.5162C10.7468 34.362 10.7434 32.2069 10.7546 30.0527C10.7572 29.4661 10.7805 29.4661 10.1015 29.5308C10.1015 29.8155 10.1033 30.1097 10.1015 30.4047C10.0903 32.5158 10.0817 34.6268 10.0593 36.7379C10.0575 36.8897 9.95746 37.0407 9.90311 37.1925C9.83927 37.1727 9.77629 37.152 9.71245 37.1321L9.71159 37.1313Z" fill="#2E3138"/>
<path d="M38.1159 5.55355H27.8091C27.8013 5.51214 27.7944 5.47073 27.7866 5.42932C28.1162 5.32752 28.4406 5.20242 28.7762 5.12909C30.9252 4.65633 33.075 4.18788 35.2292 3.74099C35.4242 3.70045 35.6891 3.76687 35.859 3.87816C36.6458 4.39148 37.4102 4.93844 38.1831 5.47245C38.1607 5.4992 38.1383 5.5268 38.1159 5.55441V5.55355Z" fill="#2E3138"/>
<path d="M6.50874 35.8057C5.56925 34.3201 4.51674 32.9717 5.01021 31.0996H6.50874V35.8057ZM6.10499 31.8303C5.84963 31.8415 5.65552 31.851 5.45537 31.8597V32.5852H6.10499V31.8303Z" fill="#2E3138"/>
<path d="M18.3573 6.12847C18.8594 6.12847 19.333 6.05169 19.7635 6.15521C20.056 6.22509 20.2881 6.54688 20.5874 6.79017C19.597 7.15251 18.868 6.92561 18.3564 6.12847H18.3573Z" fill="#2E3138"/>
<path d="M25.161 10.9546C25.3292 11.2134 25.4906 11.4299 25.6157 11.6655C25.7511 11.9226 25.6976 12.1701 25.4638 12.3496C25.2378 12.523 25.0057 12.4902 24.8099 12.2944C24.6089 12.0934 24.5485 11.857 24.7176 11.6016C24.8504 11.4015 24.9893 11.2048 25.161 10.9555V10.9546Z" fill="#2E3138"/>
<path d="M29.6202 6.07715C29.3286 6.41964 29.0922 6.6983 28.8153 7.0244C28.5133 6.69485 28.2571 6.41447 27.9482 6.07715H29.6202Z" fill="#2E3138"/>
<path d="M25.4541 6.12768C25.9985 6.09317 26.4661 6.06298 27.0527 6.02588C26.7887 6.34077 26.6093 6.59268 26.3867 6.79887C26.3211 6.85926 26.0916 6.83769 26.0114 6.76867C25.8208 6.60476 25.6741 6.38908 25.4541 6.12854V6.12768Z" fill="#2E3138"/>
<path d="M32.1086 6.07324C31.8377 6.39331 31.6195 6.65212 31.3486 6.97219C31.0881 6.6711 30.8551 6.40193 30.5713 6.07324H32.1095H32.1086Z" fill="#2E3138"/>
<path d="M33.1729 6.13037H34.3323V6.85505C33.6732 7.09057 33.5015 6.48926 33.1729 6.13037Z" fill="#2E3138"/>
<path d="M19.9141 22.4768V21.8125C19.996 21.7918 20.0633 21.7625 20.1315 21.7599C20.3446 21.7539 20.5576 21.7573 20.8035 21.7573V22.476H19.9141V22.4768Z" fill="#2E3138"/>
<path d="M20.8312 23.5207V24.1944H19.9814C19.7856 23.4896 19.9124 23.3809 20.8312 23.5207Z" fill="#2E3138"/>
<path d="M17.9692 19.9521H18.8259V20.6544H17.9692V19.9521Z" fill="#2E3138"/>
<path d="M20.8141 35.8494V36.5301H19.966C19.8159 35.7648 19.9082 35.6906 20.8141 35.8494Z" fill="#2E3138"/>
<path d="M19.9681 26.0053C19.868 25.2357 19.9483 25.1745 20.8222 25.3487V26.0053H19.9681Z" fill="#2E3138"/>
<path d="M17.9316 24.1943V23.5239H18.8228V24.1943H17.9316Z" fill="#2E3138"/>
<path d="M18.8349 21.8065V22.4777H17.9912C17.829 21.7271 17.9438 21.6314 18.8349 21.8065Z" fill="#2E3138"/>
<path d="M20.8095 20.6676H19.9546V19.9585H20.8095V20.6676Z" fill="#2E3138"/>
<path d="M24.4708 6.12256C24.1827 6.43745 23.9609 6.67901 23.6892 6.97578C23.4192 6.67987 23.1759 6.41329 22.9102 6.12256H24.4699H24.4708Z" fill="#2E3138"/>
<path d="M19.9307 28.8091H20.8011V29.4578H19.9307V28.8091Z" fill="#2E3138"/>
<path d="M17.9468 31.2814V30.6353H18.8242V31.2814H17.9468Z" fill="#2E3138"/>
<path d="M20.8184 34.1714V34.8029H19.9307V34.1714H20.8184Z" fill="#2E3138"/>
<path d="M18.8315 35.8646V36.5297H17.9817C17.8118 35.8223 17.8955 35.7541 18.8315 35.8646Z" fill="#2E3138"/>
<path d="M17.9434 26.013V25.3564H18.8259V26.013H17.9434Z" fill="#2E3138"/>
<path d="M18.8207 27.7456H17.9502V27.0942H18.8207V27.7456Z" fill="#2E3138"/>
<path d="M20.8173 27.103V27.7294H19.9321V27.103H20.8173Z" fill="#2E3138"/>
<path d="M19.9214 30.6187H20.8083V31.2786H19.9214V30.6187Z" fill="#2E3138"/>
<path d="M18.8296 28.8203V29.4717H17.9746V28.8203H18.8296Z" fill="#2E3138"/>
<path d="M17.9526 34.2008C18.7946 34.0318 18.874 34.0844 18.8162 34.8272H17.9526V34.2008Z" fill="#2E3138"/>
<path d="M14.886 6.14859C14.5788 6.611 14.3597 7.13294 13.6851 6.88103C13.855 6.15549 14.0163 6.0511 14.886 6.14859Z" fill="#2E3138"/>
<path d="M15.9819 6.12305H17.4399C17.169 6.41551 16.9456 6.6562 16.6712 6.95297C16.4331 6.66655 16.2183 6.40688 15.9819 6.12305Z" fill="#2E3138"/>
<path d="M20.4551 6.11084H21.92C21.6448 6.41796 21.4187 6.66901 21.1573 6.96061C20.9218 6.67592 20.7191 6.43091 20.4551 6.11084Z" fill="#2E3138"/>
<path d="M18.8439 32.3618V32.9027H17.9683V32.3618H18.8439Z" fill="#2E3138"/>
<path d="M20.8233 32.3545V32.9144H19.9502V32.3545H20.8233Z" fill="#2E3138"/>
<path d="M28.0917 6.95144C27.7561 6.95144 27.4861 6.95317 27.2169 6.95058C27.1333 6.94972 27.0496 6.93592 26.8813 6.92039C27.0936 6.68055 27.2635 6.48731 27.4335 6.29492C27.6474 6.50801 27.8424 6.70298 28.0926 6.95144H28.0917Z" fill="#2E3138"/>
<path d="M30.068 6.29285C30.181 6.3774 30.257 6.42054 30.3156 6.48093C30.4338 6.60343 30.5417 6.73456 30.7021 6.91746H29.5513C29.7437 6.68453 29.9033 6.49214 30.0689 6.29199L30.068 6.29285Z" fill="#2E3138"/>
<path d="M33.1879 6.90468H32.0181C32.5124 6.2171 32.5504 6.21624 33.1879 6.90468Z" fill="#2E3138"/>
<path d="M23.0325 6.9043H21.8428C22.0412 6.67396 22.1991 6.48934 22.3613 6.30127C22.5657 6.48503 22.7503 6.65067 23.0325 6.9043Z" fill="#2E3138"/>
<path d="M16.0001 6.90625H14.9648C15.3177 6.24196 15.4014 6.23851 16.0001 6.90625Z" fill="#2E3138"/>
<path d="M18.5015 6.90066H17.4507C17.656 6.26226 17.8139 6.2519 18.5015 6.90066Z" fill="#2E3138"/>
<path d="M42.0955 29.6751C41.5045 29.7252 41.4924 29.7105 41.5528 29.0522C41.7987 29.211 42.2007 29.1886 42.0955 29.6751Z" fill="#2E3138"/>
<path d="M41.5488 27.0122C41.7843 27.2296 41.9483 27.3823 42.113 27.5341C41.9457 27.6661 41.7783 27.7981 41.5488 27.9802V27.0122Z" fill="#2E3138"/>
<path d="M41.5352 30.7843V30.0786C41.769 30.2184 41.9337 30.3167 42.0985 30.4151C41.9536 30.5721 41.8086 30.7291 41.6637 30.8861C41.6214 30.8525 41.5783 30.8188 41.536 30.7852L41.5352 30.7843Z" fill="#2E3138"/>
<path d="M41.5552 23.3315C41.7803 23.486 41.9581 23.6076 42.2065 23.7776C41.9529 23.9208 41.7769 24.02 41.5552 24.1451V23.3315Z" fill="#2E3138"/>
<path d="M41.556 18.5194C41.355 18.0198 41.782 17.9931 42.0555 17.8335C42.1573 18.3192 42.115 18.3744 41.556 18.5194Z" fill="#2E3138"/>
<path d="M42.0793 20.6743C42.2389 21.1393 41.8869 21.217 41.6125 21.3498C41.4374 20.9271 41.4711 20.8762 42.0793 20.6743Z" fill="#2E3138"/>
<path d="M42.0707 14.9482C42.2398 15.4745 41.9188 15.5849 41.5824 15.7161C41.3727 15.176 41.8757 15.2027 42.0707 14.9482Z" fill="#2E3138"/>
<path d="M42.2487 31.1426C42.0063 31.4454 41.8303 31.6662 41.5853 31.9716C41.4878 31.2677 41.4999 31.253 42.2487 31.1426Z" fill="#2E3138"/>
<path d="M41.5112 24.6317C41.6915 24.5394 41.8727 24.4471 42.0936 24.335V25.0622C41.8822 24.9553 41.7002 24.8629 41.5181 24.7706C41.5155 24.724 41.5138 24.6783 41.5112 24.6317Z" fill="#2E3138"/>
<path d="M42.1677 14.3596C41.933 14.5399 41.77 14.6641 41.5552 14.8297V14.0205C41.7432 14.1249 41.9158 14.2207 42.1677 14.3596Z" fill="#2E3138"/>
<path d="M42.2364 17.242C41.9423 17.4033 41.7645 17.5017 41.5454 17.6225V16.8892C41.7568 16.997 41.9431 17.0919 42.2364 17.242Z" fill="#2E3138"/>
<path d="M41.4277 26.5789C41.6943 26.4099 41.8651 26.3012 42.0886 26.1597V26.893C41.9005 26.8041 41.7211 26.7187 41.4277 26.5789Z" fill="#2E3138"/>
<path d="M41.5732 12.9431C41.3817 12.4082 41.7777 12.3366 42.0882 12.1787C42.2237 12.6592 41.8061 12.7153 41.5732 12.9431Z" fill="#2E3138"/>
<path d="M41.556 22.3121C41.3981 21.7953 41.7716 21.7297 42.0865 21.6021C42.1084 21.8747 41.9315 22.1113 41.556 22.3121Z" fill="#2E3138"/>
<path d="M42.102 13.8549C41.882 13.7393 41.7112 13.6496 41.4834 13.5305C41.7112 13.3606 41.8863 13.2303 42.102 13.0698V13.8558V13.8549Z" fill="#2E3138"/>
<path d="M41.5756 19.4959C41.3746 18.9792 41.7826 18.9619 42.0742 18.8213C42.2218 19.3044 41.8353 19.3389 41.5756 19.4959Z" fill="#2E3138"/>
<path d="M42.0737 19.7168C42.2247 20.2827 41.8459 20.2784 41.5569 20.3802C41.4025 19.8773 41.8356 19.9023 42.0737 19.7168Z" fill="#2E3138"/>
<path d="M42.1067 16.6202C41.8902 16.5434 41.7099 16.4787 41.3838 16.3622C41.6745 16.1845 41.8678 16.0672 42.1067 15.9214V16.6202Z" fill="#2E3138"/>
<path d="M42.0651 10.7635C41.8804 10.8696 41.739 10.9516 41.5518 11.0594V10.2812C41.7303 10.4495 41.8787 10.5884 42.0651 10.7644V10.7635Z" fill="#2E3138"/>
<path d="M42.1083 28.8346C41.8728 28.7112 41.7037 28.6232 41.4639 28.4972C41.7132 28.3661 41.8909 28.2729 42.1083 28.1582V28.8346Z" fill="#2E3138"/>
<path d="M42.0983 23.119C41.899 23.05 41.7282 22.9913 41.4961 22.9111C41.7092 22.7463 41.8791 22.6143 42.0983 22.4443V23.119Z" fill="#2E3138"/>
<path d="M41.5552 32.8249C41.5931 32.2952 41.7683 32.1554 42.2704 32.2227C42.0193 32.4341 41.8295 32.5937 41.5552 32.8249Z" fill="#2E3138"/>
<path d="M42.0871 25.7049C41.8697 25.8015 41.7204 25.8679 41.5444 25.9456V25.2373C41.7351 25.4012 41.8826 25.528 42.0871 25.704V25.7049Z" fill="#2E3138"/>
<path d="M42.0012 11.3789C42.1419 11.8094 41.7735 11.8008 41.5794 11.9517C41.5288 11.6791 41.6694 11.4882 42.0012 11.3789Z" fill="#2E3138"/>
</svg>
