<svg width="181" height="181" viewBox="0 0 181 181" fill="none" xmlns="http://www.w3.org/2000/svg">
<path d="M137.148 12.4387C129.856 14.0313 122.897 15.5794 115.923 17.0693C108.488 18.6585 101.09 20.5115 93.5818 21.6349C88.6053 22.3815 83.4711 22.1315 78.4021 22.1795C71.0485 22.2514 63.6915 22.2308 56.3346 22.1452C54.8824 22.1281 54.0535 22.5939 53.3582 23.8303C52.2622 25.7895 50.9915 27.6527 49.6249 29.831H98.0241V36.89H36.5755V99.8695H26.0401V115.936H12.4838C12.4838 117.622 12.7133 119.125 12.4462 120.54C11.1858 127.218 14.2135 132.613 17.5734 137.853C29.0199 155.701 45.4567 166.887 65.3972 173.258C71.6547 175.258 78.1555 175.95 84.6973 176.357C99.8873 177.303 114.338 174.594 128.123 168.107C146.06 159.664 159.329 146.577 167.974 128.739C169.237 126.136 169.772 123.54 169.765 120.629C169.7 96.6226 169.765 72.62 169.796 48.6139C169.796 48.1104 169.864 47.6104 170.214 47.011C171.392 49.7681 172.662 52.4876 173.728 55.2893C177.732 65.8452 179.831 76.7232 180.074 88.0703C180.208 94.2422 180.047 100.329 179.252 106.425C178.04 115.727 174.971 124.444 170.556 132.651C157.109 157.646 136.295 173.11 108.573 178.56C79.1179 184.351 52.5465 177.464 29.657 157.821C14.9944 145.248 6.05848 129.164 1.94158 110.343C0.57157 104.086 -0.0723362 97.7563 0.00643965 91.3652C0.294143 67.5715 7.60659 46.4219 24.1803 28.9884C37.2126 15.278 53.0465 6.21538 71.5075 1.94436C80.3304 -0.0969584 89.2903 -0.292185 98.3324 0.276371C112.019 1.13605 124.527 5.59202 136.487 11.9592C136.631 12.0345 136.754 12.151 137.148 12.4387Z" fill="white"/>
<path d="M101.12 36.6745V29.9306H135.795C136.145 31.8418 136.48 33.6605 136.83 35.5545C137.203 35.5853 137.6 35.5819 137.977 35.6607C138.693 35.8114 139.946 35.9039 140.011 36.2155C140.227 37.2876 140.549 38.4384 139.203 39.37C136.867 40.9832 136.843 43.9116 139.114 45.5693C140.104 46.292 140.368 47.0284 140.289 48.1175C140.227 48.967 140.169 49.8472 140.323 50.6726C140.395 51.0562 140.988 51.6179 141.327 51.6042C141.727 51.5905 142.282 51.111 142.447 50.7069C142.645 50.2137 142.525 49.5835 142.501 49.0149C142.433 47.5284 142.484 46.3331 144.091 45.333C146.176 44.0315 145.783 41.1271 143.659 39.3632C143.2 38.9796 142.721 38.363 142.656 37.8048C142.433 35.8902 142.498 35.8833 145.81 35.4723C146.146 33.6913 146.495 31.8623 146.875 29.845C150.817 29.845 154.907 29.7765 158.996 29.8827C160.336 29.9169 162.394 33.0851 162.394 34.7565C162.404 43.0245 162.411 51.2926 162.415 59.5606C162.418 83.5667 162.421 107.569 162.421 131.575C162.421 132.086 162.421 132.596 162.421 133.243C160.253 133.243 158.164 133.23 156.078 133.243C152.869 133.267 150.554 134.596 149.718 137.418C149.06 139.645 147.954 141.508 146.735 143.433C145.779 144.94 145.505 146.878 144.865 148.817H136.182C143.621 140.422 146.194 130.829 144.231 120.163C142.262 109.457 136.333 101.582 126.267 96.9037C138.974 87.8891 142.587 75.4836 138.59 61.3485C133.363 42.8635 119.04 36.7875 101.124 36.6779L101.12 36.6745Z" fill="white"/>
<path d="M88.1527 72.867H72.8428V57.17C73.4764 57.17 74.0758 57.17 74.6752 57.17C83.9604 57.17 93.2423 57.1598 102.528 57.1803C110.261 57.1974 116.509 63.1741 116.937 70.925C117.231 76.2132 116.265 81.1316 112.536 85.156C109.864 88.0399 106.504 89.5435 102.562 89.5846C97.8455 89.6325 93.1258 89.5949 88.1493 89.5949V72.867H88.1527Z" fill="white"/>
<path d="M50.773 97.0781C49.6907 97.0781 48.8447 96.989 48.0227 97.1021C47.1801 97.2185 46.3342 97.4514 45.5498 97.7802C44.3922 98.2631 43.7003 97.8008 43.6969 96.3691C43.6729 89.9848 43.6626 83.5971 43.6592 77.2094C43.6523 69.2257 43.6044 61.2454 43.6763 53.2616C43.7037 50.0934 44.0086 46.9287 44.1935 43.6133H64.48C64.5211 43.925 64.6136 44.3017 64.617 44.6785C64.6923 56.2859 64.7951 67.8934 64.8225 79.5008C64.8533 92.444 64.8293 105.387 64.7951 118.33C64.7814 123.461 64.706 128.592 64.6136 133.719C64.5382 137.881 64.3841 142.042 64.2916 146.2C64.2711 147.077 64.2916 147.878 62.7264 147.248V90.5363C61.7776 90.4952 61.1269 90.4643 60.0788 90.4198V147.423H58.0169V68.4037H55.294V147.378C54.4926 147.453 54.0165 147.498 53.2664 147.567V68.4311H50.7764V97.0781H50.773ZM62.5106 68.6571C60.2466 68.3523 60.2261 68.3626 60.2192 70.4142C60.209 73.4282 60.209 76.4457 60.2055 79.4597C60.2055 81.0318 60.2055 82.6039 60.2055 84.1657H62.5106V68.6537V68.6571ZM48.259 93.04V77.343H46.1287V93.04H48.259ZM49.2283 49.5352C49.2283 48.2833 49.2444 47 49.2283 46.3602C49.2009 45.271 48.8344 44.8566 47.7076 44.8566C45.4813 44.8566 45.4539 44.8326 45.4779 47.1308C45.4847 47.9117 45.4779 48.696 45.4779 49.5626C47.3685 49.7064 47.5 49.5352 49.2283 49.5352ZM55.1399 49.5352H58.2773V45.3669H55.1399V49.5352ZM59.9795 45.3018V49.59H62.8462C62.9695 48.148 63.086 46.7472 63.2093 45.3018H59.9795ZM53.4959 49.5797V45.384H50.7079V49.5797H53.4959ZM48.5639 56.9538V53.9946H46.0396V56.9538H48.5639ZM62.9353 64.1327V61.2282H60.4282V64.1327H62.9353ZM58.2807 64.0539C58.5 62.5 59.5 60.5 57.0545 60.7179C55.7564 60.4884 55.7872 61.8105 55.7941 62.7935C55.8044 64.3039 56.5784 64.6122 58.2807 64.0505V64.0539ZM53.4822 56.8339V54.1555H50.9614V56.8339H53.4822ZM60.5001 54.0528V56.9367C63.1408 57.2518 63.4079 56.899 62.7469 54.0528H60.5001ZM55.5 54C55.5484 55.3273 55.3986 56 55.8108 56.9367C55.8861 57.1079 57.6368 57.1285 57.7121 56.9195C58.0238 56.053 58.0683 55.0906 58.2327 54.0254C57.1984 54.0802 56.5892 53.9418 55.5 54ZM50.8552 64.2971C51.8142 64.1772 52.8143 64.5471 53.2048 64.1327C53.2048 63.287 53.2048 62.2328 53.2048 61.5C52.5 61.1974 51.7663 61.4235 50.9305 61.1974C50.8929 61.9406 50.8655 62.3311 50.8552 62.7216C50.8449 63.112 50.8552 63.5025 50.8552 64.3005V64.2971ZM46.0875 64.0162C48.8173 64.2594 49.0091 64.0196 48.444 61.2351H46.0875V64.0162ZM46.0704 68.7565V71.0204H48.557V68.7565H46.0704Z" fill="white"/>
<path d="M88.2729 110.025C92.7871 110.025 97.1643 109.987 101.542 110.038C104.213 110.069 106.953 109.881 109.536 110.405C116.666 111.85 121.629 117.748 122.342 125.132C123.198 134.014 118.17 141.562 109.834 143.83C108.748 144.124 107.594 144.323 106.474 144.33C100.72 144.367 94.9655 144.33 89.2148 144.313C88.9408 144.313 88.6634 144.265 88.2729 144.23V110.025Z" fill="white"/>
<path d="M38.5585 147.416C38.4489 146.481 38.2433 145.546 38.2468 144.611C38.2605 136.13 38.3153 127.647 38.3495 119.166C38.3598 116.988 38.3427 116.988 35.7225 117.262V147.762C34.9416 147.806 34.4279 147.834 33.6572 147.875V112.909H44.8057V147.772H43.124C42.9767 146.837 42.7027 145.905 42.6993 144.974C42.6685 136.422 42.6548 127.866 42.6993 119.314C42.7096 116.984 42.8021 116.984 40.1066 117.241C40.1066 118.372 40.1134 119.54 40.1066 120.711C40.062 129.092 40.0278 137.473 39.9387 145.854C39.9319 146.457 39.5346 147.056 39.3188 147.659C39.0654 147.58 38.8153 147.498 38.5619 147.419L38.5585 147.416Z" fill="white"/>
<path d="M151.321 22.0458H110.403C110.372 21.8814 110.344 21.717 110.313 21.5526C111.622 21.1485 112.91 20.6519 114.242 20.3607C122.774 18.4838 131.309 16.624 139.861 14.8498C140.635 14.6889 141.687 14.9526 142.362 15.3944C145.485 17.4323 148.52 19.6038 151.589 21.7239C151.5 21.8301 151.41 21.9397 151.321 22.0493V22.0458Z" fill="white"/>
<path d="M25.8413 142.152C22.1115 136.254 17.9329 130.901 19.8921 123.468H25.8413V142.152ZM24.2384 126.369C23.2246 126.414 22.454 126.451 21.6594 126.486V129.366H24.2384V126.369Z" fill="white"/>
<path d="M72.8809 24.33C74.8742 24.33 76.7546 24.0251 78.4637 24.4361C79.6248 24.7136 80.5461 25.9911 81.7346 26.957C77.8026 28.3955 74.9085 27.4947 72.8774 24.33H72.8809Z" fill="white"/>
<path d="M99.8901 43.4902C100.558 44.5177 101.198 45.3774 101.695 46.3125C102.233 47.3331 102.02 48.3161 101.092 49.0285C100.195 49.7169 99.2736 49.5868 98.4961 48.8093C97.698 48.0113 97.4583 47.0728 98.1296 46.059C98.6571 45.2644 99.2085 44.4835 99.8901 43.4937V43.4902Z" fill="white"/>
<path d="M117.595 24.125C116.438 25.4847 115.499 26.591 114.4 27.8857C113.201 26.5773 112.184 25.4642 110.958 24.125H117.595Z" fill="white"/>
<path d="M101.055 24.3299C103.216 24.1929 105.073 24.0731 107.402 23.9258C106.354 25.1759 105.641 26.176 104.758 26.9946C104.497 27.2344 103.586 27.1487 103.268 26.8747C102.511 26.224 101.929 25.3677 101.055 24.3334V24.3299Z" fill="white"/>
<path d="M127.476 24.1113C126.401 25.382 125.534 26.4095 124.459 27.6802C123.424 26.4849 122.499 25.4163 121.373 24.1113H127.479H127.476Z" fill="white"/>
<path d="M131.699 24.3379H136.302V27.2149C133.685 28.15 133.004 25.7627 131.699 24.3379Z" fill="white"/>
<path d="M79.0601 89.2349V86.5976C79.3854 86.5154 79.6526 86.399 79.9232 86.3887C80.7692 86.3647 81.6151 86.3784 82.5913 86.3784V89.2315H79.0601V89.2349Z" fill="white"/>
<path d="M82.7038 93.3789V96.0539H79.3301C78.5526 93.2556 79.0561 92.8241 82.7038 93.3789Z" fill="white"/>
<path d="M71.3398 79.2129H74.7409V82.0009H71.3398V79.2129Z" fill="white"/>
<path d="M82.6319 142.323V145.026H79.2651C78.6692 141.988 79.0357 141.693 82.6319 142.323Z" fill="white"/>
<path d="M79.2757 103.244C78.8784 100.188 79.1969 99.9453 82.6665 100.637V103.244H79.2757Z" fill="white"/>
<path d="M71.1895 96.0538V93.3926H74.7275V96.0538H71.1895Z" fill="white"/>
<path d="M74.7746 86.5739V89.2385H71.4249C70.781 86.2588 71.2366 85.8786 74.7746 86.5739Z" fill="white"/>
<path d="M82.6178 82.0522H79.2236V79.2368H82.6178V82.0522Z" fill="white"/>
<path d="M97.1476 24.3066C96.0036 25.5568 95.1234 26.5158 94.0445 27.694C92.9724 26.5192 92.0066 25.4609 90.9517 24.3066H97.1441H97.1476Z" fill="white"/>
<path d="M79.1245 114.375H82.5804V116.95H79.1245V114.375Z" fill="white"/>
<path d="M71.25 124.191V121.625H74.7333V124.191H71.25Z" fill="white"/>
<path d="M82.6489 135.665V138.172H79.1245V135.665H82.6489Z" fill="white"/>
<path d="M74.7648 142.385V145.025H71.3912C70.7165 142.217 71.0487 141.946 74.7648 142.385Z" fill="white"/>
<path d="M71.2378 103.274V100.668H74.7416V103.274H71.2378Z" fill="white"/>
<path d="M74.7195 110.151H71.2637V107.565H74.7195V110.151Z" fill="white"/>
<path d="M82.6459 107.6V110.087H79.1318V107.6H82.6459Z" fill="white"/>
<path d="M79.0903 121.56H82.6113V124.18H79.0903V121.56Z" fill="white"/>
<path d="M74.7546 114.419V117.005H71.3604V114.419H74.7546Z" fill="white"/>
<path d="M71.2749 135.781C74.6177 135.11 74.9328 135.319 74.7034 138.268H71.2749V135.781Z" fill="white"/>
<path d="M59.0982 24.4093C57.8789 26.2452 57.0089 28.3173 54.3306 27.3172C55.0053 24.4367 55.6458 24.0223 59.0982 24.4093Z" fill="white"/>
<path d="M63.4482 24.3101H69.2365C68.1611 25.4711 67.274 26.4267 66.1848 27.6049C65.2395 26.4678 64.3867 25.4369 63.4482 24.3101Z" fill="white"/>
<path d="M81.2075 24.2617H87.0232C85.9306 25.481 85.0333 26.4777 83.9955 27.6354C83.0605 26.5051 82.2556 25.5324 81.2075 24.2617Z" fill="white"/>
<path d="M74.8133 128.479V130.626H71.3369V128.479H74.8133Z" fill="white"/>
<path d="M82.6693 128.451V130.674H79.2031V128.451H82.6693Z" fill="white"/>
<path d="M111.526 27.5982C110.193 27.5982 109.121 27.605 108.053 27.5947C107.72 27.5913 107.388 27.5365 106.72 27.4748C107.563 26.5227 108.238 25.7555 108.912 24.9917C109.762 25.8377 110.536 26.6117 111.529 27.5982H111.526Z" fill="white"/>
<path d="M119.372 24.9849C119.821 25.3205 120.122 25.4918 120.355 25.7315C120.825 26.2179 121.253 26.7385 121.89 27.4646H117.321C118.085 26.5398 118.718 25.7761 119.376 24.9814L119.372 24.9849Z" fill="white"/>
<path d="M131.758 27.4133H127.113C129.076 24.6836 129.227 24.6802 131.758 27.4133Z" fill="white"/>
<path d="M91.4419 27.4097H86.7188C87.5065 26.4952 88.1333 25.7623 88.7772 25.0156C89.5889 25.7452 90.3219 26.4028 91.4419 27.4097Z" fill="white"/>
<path d="M63.5236 27.4167H59.4136C60.8144 24.7794 61.1466 24.7657 63.5236 27.4167Z" fill="white"/>
<path d="M73.4529 27.3958H69.2812C70.0964 24.8613 70.7232 24.8202 73.4529 27.3958Z" fill="white"/>
<path d="M167.124 117.813C164.778 118.012 164.73 117.954 164.969 115.34C165.945 115.971 167.542 115.881 167.124 117.813Z" fill="white"/>
<path d="M164.953 107.24C165.888 108.103 166.538 108.71 167.193 109.312C166.528 109.836 165.864 110.36 164.953 111.083V107.24Z" fill="white"/>
<path d="M164.897 122.218V119.416C165.826 119.971 166.48 120.361 167.134 120.752C166.559 121.375 165.983 121.998 165.408 122.622C165.24 122.488 165.069 122.355 164.901 122.221L164.897 122.218Z" fill="white"/>
<path d="M164.978 92.6294C165.871 93.2425 166.577 93.7254 167.563 94.4001C166.556 94.9687 165.858 95.3626 164.978 95.8592V92.6294Z" fill="white"/>
<path d="M164.98 73.5242C164.182 71.5411 165.877 71.4349 166.963 70.8013C167.367 72.7296 167.2 72.9488 164.98 73.5242Z" fill="white"/>
<path d="M167.059 82.0796C167.693 83.9257 166.295 84.2339 165.206 84.7614C164.511 83.0831 164.645 82.881 167.059 82.0796Z" fill="white"/>
<path d="M167.022 59.3447C167.693 61.434 166.419 61.8724 165.083 62.393C164.251 60.2489 166.247 60.3551 167.022 59.3447Z" fill="white"/>
<path d="M167.73 123.636C166.768 124.838 166.069 125.715 165.096 126.927C164.709 124.132 164.757 124.074 167.73 123.636Z" fill="white"/>
<path d="M164.802 97.79C165.518 97.4236 166.237 97.0571 167.114 96.6118V99.4991C166.275 99.0744 165.552 98.7079 164.83 98.3415C164.819 98.1565 164.813 97.975 164.802 97.79Z" fill="white"/>
<path d="M167.409 57.0086C166.478 57.7245 165.83 58.2177 164.978 58.8753V55.6626C165.724 56.077 166.409 56.4572 167.409 57.0086Z" fill="white"/>
<path d="M167.682 68.4521C166.514 69.0926 165.809 69.483 164.939 69.9625V67.0513C165.778 67.4794 166.518 67.8562 167.682 68.4521Z" fill="white"/>
<path d="M164.474 105.521C165.532 104.849 166.21 104.418 167.097 103.856V106.767C166.351 106.414 165.638 106.075 164.474 105.521Z" fill="white"/>
<path d="M165.052 51.3852C164.291 49.2616 165.863 48.9774 167.096 48.3506C167.634 50.2583 165.976 50.481 165.052 51.3852Z" fill="white"/>
<path d="M164.98 88.5805C164.353 86.5289 165.836 86.2686 167.086 85.7617C167.173 86.844 166.471 87.7836 164.98 88.5805Z" fill="white"/>
<path d="M167.148 55.0055C166.275 54.5465 165.597 54.1903 164.692 53.7176C165.597 53.0429 166.292 52.5257 167.148 51.8887V55.0089V55.0055Z" fill="white"/>
<path d="M165.06 77.401C164.262 75.3494 165.882 75.2809 167.039 74.7227C167.625 76.6407 166.09 76.7777 165.06 77.401Z" fill="white"/>
<path d="M167.036 78.2783C167.635 80.5251 166.131 80.508 164.984 80.9122C164.371 78.9154 166.09 79.0147 167.036 78.2783Z" fill="white"/>
<path d="M167.169 65.9823C166.309 65.6775 165.593 65.4206 164.299 64.9582C165.453 64.2526 166.22 63.7868 167.169 63.208V65.9823Z" fill="white"/>
<path d="M167.001 42.7295C166.268 43.1508 165.707 43.4762 164.963 43.9043V40.8149C165.672 41.4828 166.261 42.0343 167.001 42.733V42.7295Z" fill="white"/>
<path d="M167.175 114.477C166.24 113.987 165.569 113.638 164.617 113.138C165.607 112.617 166.312 112.248 167.175 111.792V114.477Z" fill="white"/>
<path d="M167.134 91.7834C166.343 91.5094 165.664 91.2765 164.743 90.9579C165.589 90.3037 166.264 89.7797 167.134 89.105V91.7834Z" fill="white"/>
<path d="M164.978 130.318C165.128 128.215 165.824 127.66 167.817 127.928C166.82 128.767 166.067 129.4 164.978 130.318Z" fill="white"/>
<path d="M167.09 102.051C166.227 102.435 165.635 102.699 164.936 103.007V100.195C165.693 100.846 166.279 101.349 167.09 102.048V102.051Z" fill="white"/>
<path d="M166.747 45.1753C167.305 46.8844 165.843 46.8501 165.072 47.4495C164.871 46.3672 165.429 45.6091 166.747 45.1753Z" fill="white"/>
</svg>
