<svg width="28" height="28" viewBox="0 0 28 28" fill="none" xmlns="http://www.w3.org/2000/svg">
<path d="M14.0042 0.80005C11.7141 0.799279 9.46326 1.39432 7.47273 2.52671C5.4822 3.65911 3.82053 5.28988 2.65098 7.25881C1.48144 9.22773 0.844255 11.4671 0.802047 13.7568C0.75984 16.0465 1.31406 18.3078 2.41025 20.3184L0.848249 25.7964C0.793287 25.9888 0.791823 26.1925 0.844014 26.3856C0.896205 26.5788 1.00008 26.754 1.14445 26.8925C1.28882 27.031 1.46822 27.1275 1.66335 27.1716C1.85848 27.2157 2.06194 27.2058 2.25185 27.1428L7.39544 25.429C9.14853 26.4421 11.1112 27.0383 13.1315 27.1715C15.1519 27.3046 17.1758 26.9713 19.0467 26.1971C20.9176 25.423 22.5854 24.2288 23.9209 22.707C25.2565 21.1852 26.2241 19.3766 26.7488 17.421C27.2735 15.4655 27.3414 13.4154 26.9471 11.4294C26.5528 9.44345 25.7069 7.57479 24.4749 5.96803C23.2428 4.36126 21.6577 3.05946 19.8421 2.16332C18.0264 1.26718 16.029 0.800726 14.0042 0.80005ZM9.60424 11.8C9.60424 11.5083 9.72013 11.2285 9.92642 11.0222C10.1327 10.8159 10.4125 10.7 10.7042 10.7H17.3042C17.596 10.7 17.8758 10.8159 18.082 11.0222C18.2883 11.2285 18.4042 11.5083 18.4042 11.8C18.4042 12.0918 18.2883 12.3716 18.082 12.5779C17.8758 12.7842 17.596 12.9 17.3042 12.9H10.7042C10.4125 12.9 10.1327 12.7842 9.92642 12.5779C9.72013 12.3716 9.60424 12.0918 9.60424 11.8ZM10.7042 15.1H15.1042C15.396 15.1 15.6758 15.2159 15.8821 15.4222C16.0883 15.6285 16.2042 15.9083 16.2042 16.2C16.2042 16.4918 16.0883 16.7716 15.8821 16.9779C15.6758 17.1842 15.396 17.3 15.1042 17.3H10.7042C10.4125 17.3 10.1327 17.1842 9.92642 16.9779C9.72013 16.7716 9.60424 16.4918 9.60424 16.2C9.60424 15.9083 9.72013 15.6285 9.92642 15.4222C10.1327 15.2159 10.4125 15.1 10.7042 15.1Z" fill="white"/>
</svg>
