<svg width="86" height="86" viewBox="0 0 86 86" fill="none" xmlns="http://www.w3.org/2000/svg">
<g style="mix-blend-mode:multiply" opacity="0.62">
<path d="M43 86C66.7482 86 86 66.7482 86 42.9999C86 19.2517 66.7482 0 43 0C19.2518 0 0 19.2517 0 42.9999C0 66.7482 19.2518 86 43 86Z" fill="#F0F6FF"/>
</g>
<g clip-path="url(#clip0_61_1704)">
<path d="M64.4497 52.9024C64.4497 51.7474 64.4259 50.5924 64.4606 49.4392C64.4807 48.8007 64.2873 48.7026 63.7088 48.8969C59.7983 50.2074 55.8768 51.492 51.959 52.7821C51.5046 52.932 51.0484 53.0801 50.5904 53.2134C49.7291 53.4651 49.0776 53.2652 48.563 52.5081C47.1452 50.4147 45.7529 48.3046 44.3514 46.2001C44.1252 45.8595 44.023 45.5041 44.4135 45.2302C44.8241 44.9414 45.096 45.2246 45.3131 45.5485C46.5978 47.455 47.8733 49.3671 49.1579 51.2717C49.8003 52.2249 49.8094 52.2305 50.9353 51.8603C55.8914 50.2259 60.8475 48.586 65.8018 46.9497C67.0135 46.5499 68.2306 46.163 69.4386 45.7503C70.2251 45.4819 70.3109 45.2394 69.8529 44.5435C68.2087 42.0484 66.5464 39.5644 64.8986 37.0711C64.707 36.7824 64.4497 36.6306 64.1376 36.527C57.3202 34.2743 50.5046 32.0217 43.6909 29.7598C43.2931 29.6284 42.9409 29.6914 42.5631 29.8154C36.8278 31.7052 31.0907 33.5913 25.3499 35.4719C24.9101 35.6163 24.328 35.918 24.1237 35.2572C23.9029 34.5446 24.5871 34.4909 25.0433 34.3391C30.5378 32.5141 36.0304 30.6853 41.5321 28.8843C42.1507 28.6826 42.1416 28.4697 41.8113 27.9866C40.4354 25.9765 39.065 23.9626 37.7439 21.9155C37.3224 21.2621 36.8808 21.1733 36.1965 21.4028C31.2695 23.052 26.3335 24.6771 21.3992 26.3097C20.1219 26.7317 18.8427 27.1407 17.5672 27.5702C16.7168 27.8552 16.6365 28.1014 17.1438 28.8695C18.5507 30.9981 19.9704 33.1175 21.3755 35.2479C21.5762 35.5515 21.8262 35.7459 22.1675 35.8588C28.9885 38.0966 35.8078 40.3399 42.6252 42.5888C43.0668 42.7351 43.4682 42.6684 43.8898 42.5278C49.6251 40.6324 55.3604 38.7407 61.0975 36.8564C61.5428 36.7102 62.134 36.3197 62.3749 37.0434C62.6176 37.7652 61.9205 37.8337 61.4734 37.9818C55.8275 39.8513 50.1798 41.7207 44.523 43.5569C43.804 43.7901 43.3186 44.1788 42.9062 44.8118C41.2748 47.3162 39.5979 49.7891 37.9337 52.2712C37.2366 53.3115 36.6855 53.5317 35.4957 53.143C30.233 51.4198 24.9758 49.678 19.715 47.9437C18.5891 47.5735 17.4577 47.2199 16.3373 46.8349C15.018 46.3815 14.6128 45.2061 15.3774 44.0381C16.6511 42.0965 17.9449 40.1696 19.2314 38.2372C19.3573 38.0466 19.4723 37.8356 19.704 37.756C19.9321 37.6764 20.1602 37.6857 20.3372 37.8745C20.5617 38.1151 20.5215 38.3946 20.3664 38.6426C20.0033 39.2275 19.6219 39.8032 19.2405 40.3788C18.3245 41.7578 17.403 43.1312 16.4887 44.512C16.0033 45.245 16.0709 45.4874 16.892 45.7595C21.2186 47.194 25.5488 48.6156 29.879 50.0427C31.7622 50.6627 33.6436 51.2865 35.5268 51.9121C36.4775 52.2286 36.5413 52.2138 37.0961 51.3865C38.6453 49.0765 40.1909 46.7646 41.7365 44.4528C42.2237 43.7235 42.2219 43.7142 41.4081 43.4458C34.8279 41.2784 28.2477 39.109 21.662 36.9601C21.1273 36.7861 20.777 36.4973 20.4704 36.0253C19.0434 33.8264 17.5763 31.6552 16.1311 29.4692C15.1895 28.044 15.549 26.9834 17.173 26.4466C23.4302 24.3643 29.6856 22.2986 35.941 20.2367C37.3497 19.7721 37.8059 19.9387 38.6453 21.1844C40.1471 23.4148 41.6453 25.6489 43.1343 27.8885C43.3715 28.2458 43.6361 28.4993 44.0613 28.64C50.7309 30.8297 57.3969 33.0268 64.0555 35.2498C64.6084 35.4349 64.8986 35.3497 65.2216 34.85C66.5044 32.8602 67.8347 30.9 69.1412 28.9269C69.6996 28.0829 69.6248 27.846 68.6996 27.5406C62.488 25.4878 56.2746 23.4462 50.0685 21.3824C49.3952 21.1584 48.9791 21.2973 48.5868 21.9118C47.5758 23.5018 46.5047 25.0547 45.4536 26.6188C45.3259 26.8094 45.1908 27.0001 45.0303 27.1574C44.835 27.3499 44.585 27.3999 44.3423 27.2444C44.0923 27.0852 44.0467 26.8261 44.1398 26.5725C44.2255 26.3374 44.3624 26.119 44.5029 25.9117C45.5905 24.2884 46.6817 22.6688 47.7747 21.0492C48.4828 19.9997 49.012 19.7961 50.2163 20.1867C53.1196 21.1325 56.0173 22.1006 58.9169 23.0575C62.3147 24.1792 65.7161 25.2916 69.1102 26.4226C70.8091 26.9871 71.1448 28.0218 70.1394 29.5396C68.8073 31.5516 67.4806 33.5691 66.1212 35.5626C65.811 36.0179 65.8183 36.3382 66.1248 36.7916C67.7233 39.1516 69.2945 41.5301 70.8656 43.9086C71.7342 45.2228 71.3437 46.3741 69.8656 46.8775C68.6795 47.281 67.4952 47.7012 66.2945 48.0529C65.7617 48.2084 65.5701 48.4619 65.5774 49.0246C65.6029 51.4716 65.5902 53.9204 65.5865 56.3674C65.5847 58.0999 64.9059 59.0161 63.28 59.5103C57.0684 61.402 50.855 63.2863 44.6489 65.1965C43.627 65.5111 42.6562 65.4945 41.638 65.1817C35.4319 63.2733 29.2166 61.3872 23.0051 59.4974C21.4613 59.0272 20.7496 58.0832 20.7441 56.4562C20.7387 54.6553 20.7405 52.8543 20.7441 51.0533C20.7441 50.8238 20.7405 50.5868 20.7934 50.3666C20.8573 50.0963 21.0507 49.9279 21.3408 49.9409C21.5963 49.9538 21.7733 50.1148 21.8262 50.3573C21.8755 50.5794 21.8773 50.8145 21.8773 51.044C21.881 52.8228 21.8719 54.5997 21.8846 56.3785C21.8919 57.4965 22.3025 58.0333 23.3408 58.3498C29.6838 60.2766 36.0304 62.1979 42.3697 64.1396C42.9445 64.3154 43.4774 64.3024 44.0394 64.1303C50.3805 62.1942 56.7253 60.2655 63.0665 58.3294C64.0263 58.037 64.4333 57.4817 64.4478 56.4396C64.4643 55.2624 64.4515 54.0852 64.4515 52.9061L64.4497 52.9024Z" fill="#A1B6CF"/>
<path d="M59.6327 36.2492C58.2514 36.7119 56.985 37.145 55.7113 37.5633C51.7953 38.8498 47.8756 40.1288 43.9596 41.4189C43.4943 41.5725 43.0563 41.6466 42.5655 41.4837C37.4834 39.7993 32.3977 38.1316 27.3121 36.4583C27.1424 36.4028 26.9818 36.3232 26.792 36.2436C26.9015 35.9475 27.1606 35.9549 27.3559 35.8919C32.374 34.2335 37.394 32.5843 42.4085 30.9165C42.9341 30.7407 43.4012 30.7407 43.9286 30.9165C48.8135 32.5417 53.7058 34.1446 58.5926 35.7605C58.9083 35.8642 59.2568 35.9049 59.6327 36.2529V36.2492Z" fill="#3B6FD4"/>
</g>
<defs>
<clipPath id="clip0_61_1704">
<rect width="56.3239" height="45.4225" fill="white" transform="translate(15 19.9995)"/>
</clipPath>
</defs>
</svg>
