<svg width="20" height="21" viewBox="0 0 20 21" fill="none" xmlns="http://www.w3.org/2000/svg">
<path d="M12.52 17.0662C11.71 17.2762 10.87 17.3762 10 17.3762C6.73 17.3762 3.8 15.8462 1.8 13.4262C0.4 11.7362 0.4 9.12621 1.8 7.44621C1.96 7.24621 2.14 7.05621 2.32 6.86621" stroke="#C2C3CB" stroke-width="1.5" stroke-linecap="round" stroke-linejoin="round"/>
<path d="M18.1998 13.4261C17.3998 14.3861 16.4498 15.2061 15.3998 15.8461L4.58984 5.02609C6.17984 4.04609 8.01984 3.49609 9.99984 3.49609C13.2698 3.49609 16.1998 5.0261 18.1998 7.4461C19.5998 9.1261 19.5998 11.7461 18.1998 13.4261Z" stroke="#C2C3CB" stroke-width="1.5" stroke-linecap="round" stroke-linejoin="round"/>
<path d="M13.0803 10.4364C13.0803 11.2864 12.7303 12.0564 12.1803 12.6164L7.82031 8.25645C8.37031 7.69645 9.15031 7.35645 10.0003 7.35645C11.7103 7.35645 13.0803 8.72645 13.0803 10.4364Z" stroke="#C2C3CB" stroke-width="1.5" stroke-linecap="round" stroke-linejoin="round"/>
<path d="M0.75 1.18652L4.59 5.02652L7.82 8.25652L12.18 12.6165L15.41 15.8465L19.25 19.6865" stroke="#C2C3CB" stroke-width="1.5" stroke-linecap="round" stroke-linejoin="round"/>
</svg>
