<svg width="19" height="22" viewBox="0 0 19 22" fill="none" xmlns="http://www.w3.org/2000/svg">
<path d="M0.917969 17.3014V13.1452C0.917969 11.3327 2.38672 9.85352 4.20964 9.85352H14.8034C16.6159 9.85352 18.095 11.3223 18.095 13.1452V17.3014C18.095 19.1139 16.6263 20.5931 14.8034 20.5931H4.20964C2.38672 20.5931 0.917969 19.1244 0.917969 17.3014Z" stroke="#737B8C" stroke-width="1.5625" stroke-linecap="round" stroke-linejoin="round"/>
<path d="M4.13672 9.86394V6.68685C4.13672 3.72852 6.54296 1.32227 9.5013 1.32227C12.4596 1.32227 14.8659 3.72852 14.8659 6.68685V9.86394H4.13672Z" stroke="#737B8C" stroke-width="1.5625" stroke-linecap="round" stroke-linejoin="round"/>
<path d="M9.5 17.374V14.6865" stroke="#737B8C" stroke-width="1.5625" stroke-linecap="round" stroke-linejoin="round"/>
<path d="M9.5026 15.2288C10.0952 15.2288 10.5755 14.7485 10.5755 14.1559C10.5755 13.5634 10.0952 13.083 9.5026 13.083C8.91005 13.083 8.42969 13.5634 8.42969 14.1559C8.42969 14.7485 8.91005 15.2288 9.5026 15.2288Z" stroke="#737B8C" stroke-width="1.5625" stroke-linecap="round" stroke-linejoin="round"/>
</svg>
