<svg width="20" height="21" viewBox="0 0 20 21" fill="none" xmlns="http://www.w3.org/2000/svg">
<path fill-rule="evenodd" clip-rule="evenodd" d="M6.80919 13.2309C10.0134 16.4351 12.9825 16.7859 13.8542 16.8184C14.9075 16.8568 15.9825 15.9968 16.4475 15.1159C15.7059 14.2459 14.74 13.5709 13.6825 12.8393C13.0584 13.4626 12.2892 14.6209 11.265 14.2059C10.6825 13.9718 9.24419 13.3093 7.98752 12.0518C6.73002 10.7951 6.06835 9.35676 5.83252 8.7751C5.41752 7.74926 6.57919 6.97843 7.20335 6.35426C6.47169 5.27926 5.80835 4.28843 4.94002 3.58426C4.04669 4.05093 3.18169 5.1176 3.22085 6.1851C3.25335 7.05676 3.60419 10.0259 6.80919 13.2309ZM13.7925 18.4843C12.5925 18.4401 9.19169 17.9701 5.63002 14.4093C2.06919 10.8476 1.60002 7.4476 1.55502 6.24676C1.48835 4.41676 2.89002 2.63926 4.50919 1.9451C4.70417 1.8609 4.91769 1.82885 5.12879 1.85208C5.3399 1.87531 5.54134 1.95302 5.71335 2.0776C7.05335 3.0551 7.97752 4.53593 8.77169 5.69593C8.93689 5.93714 9.01258 6.22851 8.98564 6.51963C8.95871 6.81075 8.83085 7.08329 8.62419 7.2901L7.49419 8.42093C7.75669 9.0001 8.29085 9.99843 9.16585 10.8734C10.0409 11.7484 11.0392 12.2826 11.6192 12.5451L12.7484 11.4151C12.9559 11.208 13.2296 11.0803 13.5217 11.0543C13.8138 11.0282 14.1057 11.1055 14.3467 11.2726C15.53 12.0926 16.92 13.0034 17.9334 14.3009C18.068 14.4742 18.1537 14.6804 18.1814 14.8981C18.2091 15.1158 18.1779 15.337 18.0909 15.5384C17.3934 17.1659 15.6284 18.5518 13.7925 18.4843Z" fill="#737B8C"/>
</svg>
