<svg width="19" height="26" viewBox="0 0 19 26" fill="none" xmlns="http://www.w3.org/2000/svg">
<g clip-path="url(#clip0_45_489)">
<path d="M16.7893 26H2.20698C2.11412 25.9708 2.02191 25.9403 1.9284 25.9125C0.799142 25.5668 0.00301127 24.4768 0.0023619 23.2499C0.00041378 16.4184 -0.000884966 9.58627 0.00301127 2.7548C0.00366064 1.25334 1.19916 0.00607307 2.63687 0.00336163C5.45579 -0.00273911 8.27472 0.00132805 11.093 0.00132805C11.4105 0.00132805 11.4118 0.00336161 11.4118 0.34297C11.4125 2.11829 11.4118 3.89428 11.4118 5.66959C11.4118 5.94209 11.4391 6.21053 11.532 6.46608C11.795 7.19003 12.4125 7.60895 13.2327 7.61031C15.047 7.6137 16.8614 7.61505 18.6757 7.60692C18.9095 7.60556 18.9998 7.66183 18.9998 7.9289C18.9926 13.0528 18.9939 18.1768 18.9933 23.3001C18.9933 23.7678 18.866 24.2009 18.6452 24.6043C18.2296 25.3621 17.5861 25.7939 16.788 25.9993L16.7893 26ZM9.35788 11.6714C11.082 11.6714 12.806 11.672 14.5301 11.6714C15.0522 11.6714 15.4029 11.3711 15.4035 10.9311C15.4042 10.4919 15.0522 10.1923 14.5308 10.1896C14.523 10.1896 14.5145 10.1896 14.5068 10.1896C11.0748 10.1896 7.64288 10.1896 4.2116 10.1896C3.65379 10.1896 3.29014 10.4919 3.30118 10.9427C3.31222 11.3907 3.66158 11.672 4.2103 11.672C5.92594 11.672 7.64223 11.672 9.35788 11.672V11.6714ZM9.32476 15.7304C11.0488 15.7304 12.7729 15.7304 14.497 15.7304C15.0457 15.7304 15.3944 15.447 15.4035 14.999C15.4126 14.5468 15.0509 14.2479 14.4912 14.2479C11.0677 14.2479 7.64353 14.2479 4.22004 14.2479C3.65703 14.2479 3.29793 14.5394 3.30053 14.9915C3.30312 15.445 3.65898 15.7297 4.22523 15.7304C5.92464 15.7304 7.6247 15.7304 9.32411 15.7304H9.32476ZM5.78113 18.3076C5.20644 18.3076 4.63109 18.2995 4.05705 18.3103C3.62781 18.3185 3.30442 18.6452 3.30118 19.0438C3.29793 19.4295 3.61352 19.7779 4.02588 19.782C5.1915 19.7948 6.35777 19.7976 7.52275 19.7799C7.96887 19.7732 8.23836 19.4464 8.22537 19.0133C8.21238 18.5964 7.91692 18.3164 7.45716 18.309C6.8987 18.3002 6.34024 18.3069 5.78113 18.3069V18.3076Z" fill="#3B6FD4"/>
<path d="M15.7791 6.12926C14.9368 6.12926 14.0946 6.12994 13.2524 6.12926C12.901 6.12926 12.8335 6.06215 12.8335 5.70695C12.8322 4.00756 12.8322 2.30816 12.8348 0.608765C12.8348 0.529456 12.7984 0.423032 12.8842 0.377615C12.966 0.333554 13.0342 0.415575 13.1011 0.458958C13.3089 0.593852 13.4835 0.770774 13.6602 0.944984C15.1492 2.41458 16.6369 3.88486 18.1253 5.35514C18.2727 5.50088 18.4077 5.65882 18.5194 5.83574C18.5668 5.91031 18.6532 5.9903 18.6045 6.08249C18.5616 6.16315 18.4571 6.1279 18.3792 6.12858C17.5122 6.13061 16.646 6.12994 15.7791 6.12994V6.12926Z" fill="#3B6FD4"/>
</g>
<defs>
<clipPath id="clip0_45_489">
<rect width="19" height="26" fill="white"/>
</clipPath>
</defs>
</svg>
