<svg width="28" height="28" viewBox="0 0 28 28" fill="none" xmlns="http://www.w3.org/2000/svg">
<circle cx="14" cy="14" r="13.5" fill="white" stroke="#3B6FD4"/>
<path d="M18.6062 11.7049C18.3701 11.7049 18.1402 11.7299 17.917 11.7743C17.1169 10.0931 15.4322 8.93091 13.4775 8.93091C10.8907 8.93091 8.77193 10.9611 8.56101 13.5436C8.412 13.5172 8.2596 13.5012 8.10243 13.5012C6.61374 13.5012 5.40674 14.7321 5.40674 16.2503C5.40674 17.7684 6.61374 18.9999 8.10243 18.9999H18.6056C20.5807 18.9999 22.1823 17.3666 22.1823 15.3524C22.1823 13.3382 20.5807 11.7049 18.6056 11.7049H18.6062Z" fill="#F6F9FF" stroke="#3B6FD4" stroke-width="0.5" stroke-linecap="round" stroke-linejoin="round"/>
<path d="M15.4159 14.7463V16.4428H12.1739V14.7463H11.4629V17.1068H16.1263V14.7463H15.4159Z" fill="#3B6FD4"/>
<path d="M15.1791 13.8783L13.7952 12.4663L12.4106 13.8783L12.7855 14.2599L13.517 13.514V15.2493H14.0728V13.514L14.8049 14.2599L15.1791 13.8783Z" fill="#3B6FD4"/>
</svg>
